<svg width="1322" height="171" viewBox="0 0 1322 171" fill="none" xmlns="http://www.w3.org/2000/svg">
<g filter="url(#filter0_ddd_890_24079)">
<rect x="61" y="37.5" width="1200" height="48" rx="4" fill="white"/>
<rect x="60.5" y="37" width="1201" height="49" rx="4.5" stroke="#CBD4E6"/>
<rect x="61" y="37.5" width="324.5" height="48" rx="4" fill="white"/>
<path fill-rule="evenodd" clip-rule="evenodd" d="M77.2929 61.3155C77.028 61.419 76.9195 61.7356 77.0651 61.9799L78.8132 64.9108C79.0636 65.3306 79.5808 65.5079 80.0361 65.3299L96.9381 58.723C97.7279 58.4143 98.1179 57.5237 97.8092 56.734C97.4883 55.913 96.5436 55.5302 95.7417 55.8961L90.7432 58.1773L83.773 51.7713C83.4838 51.5055 83.0685 51.4276 82.7027 51.5706C82.0896 51.8102 81.8564 52.556 82.2236 53.1023L86.6983 59.7584L79.8555 62.8571L77.7241 61.3669C77.598 61.2787 77.4362 61.2594 77.2929 61.3155ZM98.6776 68.4521H78.1476V70.0313H98.6776V68.4521Z" fill="#6E7491"/>
<path d="M114.566 67.5V54.81H122.414V56.052H116.042V60.48H122.054V61.722H116.042V67.5H114.566ZM124.054 67.5V58.752H125.476V60.318C125.944 59.262 126.904 58.68 128.356 58.572L128.878 58.518L128.986 59.778L128.068 59.886C127.24 59.958 126.61 60.222 126.178 60.678C125.746 61.122 125.53 61.734 125.53 62.514V67.5H124.054ZM134.035 67.662C133.183 67.662 132.445 67.476 131.821 67.104C131.197 66.732 130.711 66.21 130.363 65.538C130.027 64.854 129.859 64.05 129.859 63.126C129.859 62.202 130.027 61.404 130.363 60.732C130.711 60.048 131.197 59.52 131.821 59.148C132.445 58.776 133.183 58.59 134.035 58.59C134.875 58.59 135.607 58.776 136.231 59.148C136.867 59.52 137.353 60.048 137.689 60.732C138.037 61.404 138.211 62.202 138.211 63.126C138.211 64.05 138.037 64.854 137.689 65.538C137.353 66.21 136.867 66.732 136.231 67.104C135.607 67.476 134.875 67.662 134.035 67.662ZM134.035 66.492C134.851 66.492 135.505 66.204 135.997 65.628C136.489 65.04 136.735 64.206 136.735 63.126C136.735 62.034 136.489 61.2 135.997 60.624C135.505 60.048 134.851 59.76 134.035 59.76C133.207 59.76 132.547 60.048 132.055 60.624C131.575 61.2 131.335 62.034 131.335 63.126C131.335 64.206 131.575 65.04 132.055 65.628C132.547 66.204 133.207 66.492 134.035 66.492ZM140.437 67.5V58.752H141.859V60.228C142.123 59.7 142.489 59.298 142.957 59.022C143.425 58.734 143.971 58.59 144.595 58.59C145.963 58.59 146.839 59.184 147.223 60.372C147.487 59.82 147.877 59.388 148.393 59.076C148.909 58.752 149.503 58.59 150.175 58.59C152.119 58.59 153.091 59.742 153.091 62.046V67.5H151.633V62.118C151.633 61.314 151.489 60.726 151.201 60.354C150.925 59.97 150.463 59.778 149.815 59.778C149.107 59.778 148.543 60.03 148.123 60.534C147.703 61.038 147.493 61.71 147.493 62.55V67.5H146.035V62.118C146.035 61.314 145.891 60.726 145.603 60.354C145.327 59.97 144.865 59.778 144.217 59.778C143.497 59.778 142.927 60.03 142.507 60.534C142.099 61.038 141.895 61.71 141.895 62.55V67.5H140.437ZM162.762 67.5L159.504 58.752H161.034L163.5 65.79L166.056 58.752H167.298L169.818 65.808L172.32 58.752H173.778L170.502 67.5H169.116L166.65 60.714L164.166 67.5H162.762ZM175.575 67.5V54.81H177.033V60.192C177.321 59.664 177.723 59.268 178.239 59.004C178.767 58.728 179.355 58.59 180.003 58.59C182.079 58.59 183.117 59.742 183.117 62.046V67.5H181.659V62.136C181.659 61.32 181.497 60.726 181.173 60.354C180.861 59.97 180.357 59.778 179.661 59.778C178.857 59.778 178.215 60.03 177.735 60.534C177.267 61.026 177.033 61.686 177.033 62.514V67.5H175.575ZM189.748 67.662C188.368 67.662 187.276 67.26 186.472 66.456C185.668 65.64 185.266 64.536 185.266 63.144C185.266 62.244 185.446 61.452 185.806 60.768C186.166 60.072 186.658 59.538 187.282 59.166C187.918 58.782 188.65 58.59 189.478 58.59C190.666 58.59 191.596 58.974 192.268 59.742C192.94 60.498 193.276 61.542 193.276 62.874V63.432H186.688C186.736 64.428 187.024 65.19 187.552 65.718C188.08 66.234 188.812 66.492 189.748 66.492C190.276 66.492 190.78 66.414 191.26 66.258C191.74 66.09 192.196 65.82 192.628 65.448L193.132 66.474C192.736 66.846 192.232 67.14 191.62 67.356C191.008 67.56 190.384 67.662 189.748 67.662ZM189.514 59.67C188.686 59.67 188.032 59.928 187.552 60.444C187.072 60.96 186.79 61.638 186.706 62.478H192.016C191.98 61.59 191.746 60.9 191.314 60.408C190.894 59.916 190.294 59.67 189.514 59.67ZM195.386 67.5V58.752H196.808V60.318C197.276 59.262 198.236 58.68 199.688 58.572L200.21 58.518L200.318 59.778L199.4 59.886C198.572 59.958 197.942 60.222 197.51 60.678C197.078 61.122 196.862 61.734 196.862 62.514V67.5H195.386ZM205.673 67.662C204.293 67.662 203.201 67.26 202.397 66.456C201.593 65.64 201.191 64.536 201.191 63.144C201.191 62.244 201.371 61.452 201.731 60.768C202.091 60.072 202.583 59.538 203.207 59.166C203.843 58.782 204.575 58.59 205.403 58.59C206.591 58.59 207.521 58.974 208.193 59.742C208.865 60.498 209.201 61.542 209.201 62.874V63.432H202.613C202.661 64.428 202.949 65.19 203.477 65.718C204.005 66.234 204.737 66.492 205.673 66.492C206.201 66.492 206.705 66.414 207.185 66.258C207.665 66.09 208.121 65.82 208.553 65.448L209.057 66.474C208.661 66.846 208.157 67.14 207.545 67.356C206.933 67.56 206.309 67.662 205.673 67.662ZM205.439 59.67C204.611 59.67 203.957 59.928 203.477 60.444C202.997 60.96 202.715 61.638 202.631 62.478H207.941C207.905 61.59 207.671 60.9 207.239 60.408C206.819 59.916 206.219 59.67 205.439 59.67ZM213.044 64.188V63.666C213.044 63.054 213.158 62.484 213.386 61.956C213.614 61.416 214.016 60.81 214.592 60.138C215.048 59.61 215.366 59.16 215.546 58.788C215.726 58.416 215.816 58.02 215.816 57.6C215.816 57.096 215.636 56.7 215.276 56.412C214.916 56.112 214.418 55.962 213.782 55.962C213.122 55.962 212.51 56.082 211.946 56.322C211.382 56.562 210.848 56.922 210.344 57.402L209.804 56.25C210.272 55.77 210.866 55.386 211.586 55.098C212.306 54.798 213.062 54.648 213.854 54.648C214.886 54.648 215.72 54.912 216.356 55.44C216.992 55.956 217.31 56.64 217.31 57.492C217.31 58.056 217.184 58.584 216.932 59.076C216.692 59.568 216.266 60.138 215.654 60.786C215.09 61.386 214.688 61.914 214.448 62.37C214.22 62.814 214.076 63.27 214.016 63.738L213.98 64.188H213.044ZM212.594 67.5V65.664H214.43V67.5H212.594Z" fill="#7C8DB0"/>
<rect x="385.5" y="37.5" width="1" height="48" fill="#CBD4E6"/>
<rect x="386.5" y="37.5" width="324.5" height="48" rx="4" fill="white"/>
<path fill-rule="evenodd" clip-rule="evenodd" d="M405.342 54.9788C405.071 54.891 404.786 55.067 404.744 55.3482L404.238 58.723C404.165 59.2065 404.453 59.6715 404.917 59.8225L422.177 65.4304C422.983 65.6925 423.849 65.2511 424.111 64.4446C424.384 63.6063 423.896 62.7113 423.044 62.4859L417.732 61.0805L416.404 51.7073C416.349 51.3184 416.077 50.9948 415.704 50.8734C415.078 50.6701 414.424 51.0989 414.362 51.7541L413.602 59.7384L406.346 57.7959L405.642 55.2921C405.601 55.1439 405.488 55.0264 405.342 54.9788ZM424.178 68.4521H403.648V70.0314H424.178V68.4521Z" fill="#6E7491"/>
<path d="M443.486 67.5L439.04 54.81H440.588L444.17 65.34L447.842 54.81H449.03L452.666 65.43L456.32 54.81H457.796L453.35 67.5H452.036L448.418 57.06L444.764 67.5H443.486ZM459.679 67.5V54.81H461.137V60.192C461.425 59.664 461.827 59.268 462.343 59.004C462.871 58.728 463.459 58.59 464.107 58.59C466.183 58.59 467.221 59.742 467.221 62.046V67.5H465.763V62.136C465.763 61.32 465.601 60.726 465.277 60.354C464.965 59.97 464.461 59.778 463.765 59.778C462.961 59.778 462.319 60.03 461.839 60.534C461.371 61.026 461.137 61.686 461.137 62.514V67.5H459.679ZM473.851 67.662C472.471 67.662 471.379 67.26 470.575 66.456C469.771 65.64 469.369 64.536 469.369 63.144C469.369 62.244 469.549 61.452 469.909 60.768C470.269 60.072 470.761 59.538 471.385 59.166C472.021 58.782 472.753 58.59 473.581 58.59C474.769 58.59 475.699 58.974 476.371 59.742C477.043 60.498 477.379 61.542 477.379 62.874V63.432H470.791C470.839 64.428 471.127 65.19 471.655 65.718C472.183 66.234 472.915 66.492 473.851 66.492C474.379 66.492 474.883 66.414 475.363 66.258C475.843 66.09 476.299 65.82 476.731 65.448L477.235 66.474C476.839 66.846 476.335 67.14 475.723 67.356C475.111 67.56 474.487 67.662 473.851 67.662ZM473.617 59.67C472.789 59.67 472.135 59.928 471.655 60.444C471.175 60.96 470.893 61.638 470.809 62.478H476.119C476.083 61.59 475.849 60.9 475.417 60.408C474.997 59.916 474.397 59.67 473.617 59.67ZM479.489 67.5V58.752H480.911V60.318C481.379 59.262 482.339 58.68 483.791 58.572L484.313 58.518L484.421 59.778L483.503 59.886C482.675 59.958 482.045 60.222 481.613 60.678C481.181 61.122 480.965 61.734 480.965 62.514V67.5H479.489ZM489.777 67.662C488.397 67.662 487.305 67.26 486.501 66.456C485.697 65.64 485.295 64.536 485.295 63.144C485.295 62.244 485.475 61.452 485.835 60.768C486.195 60.072 486.687 59.538 487.311 59.166C487.947 58.782 488.679 58.59 489.507 58.59C490.695 58.59 491.625 58.974 492.297 59.742C492.969 60.498 493.305 61.542 493.305 62.874V63.432H486.717C486.765 64.428 487.053 65.19 487.581 65.718C488.109 66.234 488.841 66.492 489.777 66.492C490.305 66.492 490.809 66.414 491.289 66.258C491.769 66.09 492.225 65.82 492.657 65.448L493.161 66.474C492.765 66.846 492.261 67.14 491.649 67.356C491.037 67.56 490.413 67.662 489.777 67.662ZM489.543 59.67C488.715 59.67 488.061 59.928 487.581 60.444C487.101 60.96 486.819 61.638 486.735 62.478H492.045C492.009 61.59 491.775 60.9 491.343 60.408C490.923 59.916 490.323 59.67 489.543 59.67ZM503.548 67.662C502.516 67.662 501.742 67.392 501.226 66.852C500.71 66.3 500.452 65.508 500.452 64.476V59.886H498.742V58.752H500.452V56.07H501.91V58.752H504.682V59.886H501.91V64.332C501.91 65.016 502.054 65.538 502.342 65.898C502.63 66.246 503.098 66.42 503.746 66.42C503.938 66.42 504.13 66.396 504.322 66.348C504.514 66.3 504.688 66.252 504.844 66.204L505.096 67.32C504.94 67.404 504.712 67.482 504.412 67.554C504.112 67.626 503.824 67.662 503.548 67.662ZM509.879 67.662C509.027 67.662 508.289 67.476 507.665 67.104C507.041 66.732 506.555 66.21 506.207 65.538C505.871 64.854 505.703 64.05 505.703 63.126C505.703 62.202 505.871 61.404 506.207 60.732C506.555 60.048 507.041 59.52 507.665 59.148C508.289 58.776 509.027 58.59 509.879 58.59C510.719 58.59 511.451 58.776 512.075 59.148C512.711 59.52 513.197 60.048 513.533 60.732C513.881 61.404 514.055 62.202 514.055 63.126C514.055 64.05 513.881 64.854 513.533 65.538C513.197 66.21 512.711 66.732 512.075 67.104C511.451 67.476 510.719 67.662 509.879 67.662ZM509.879 66.492C510.695 66.492 511.349 66.204 511.841 65.628C512.333 65.04 512.579 64.206 512.579 63.126C512.579 62.034 512.333 61.2 511.841 60.624C511.349 60.048 510.695 59.76 509.879 59.76C509.051 59.76 508.391 60.048 507.899 60.624C507.419 61.2 507.179 62.034 507.179 63.126C507.179 64.206 507.419 65.04 507.899 65.628C508.391 66.204 509.051 66.492 509.879 66.492ZM517.819 64.188V63.666C517.819 63.054 517.933 62.484 518.161 61.956C518.389 61.416 518.791 60.81 519.367 60.138C519.823 59.61 520.141 59.16 520.321 58.788C520.501 58.416 520.591 58.02 520.591 57.6C520.591 57.096 520.411 56.7 520.051 56.412C519.691 56.112 519.193 55.962 518.557 55.962C517.897 55.962 517.285 56.082 516.721 56.322C516.157 56.562 515.623 56.922 515.119 57.402L514.579 56.25C515.047 55.77 515.641 55.386 516.361 55.098C517.081 54.798 517.837 54.648 518.629 54.648C519.661 54.648 520.495 54.912 521.131 55.44C521.767 55.956 522.085 56.64 522.085 57.492C522.085 58.056 521.959 58.584 521.707 59.076C521.467 59.568 521.041 60.138 520.429 60.786C519.865 61.386 519.463 61.914 519.223 62.37C518.995 62.814 518.851 63.27 518.791 63.738L518.755 64.188H517.819ZM517.369 67.5V65.664H519.205V67.5H517.369Z" fill="#7C8DB0"/>
<rect x="711" y="37.5" width="1" height="48" fill="#CBD4E6"/>
<rect x="712" y="37.5" width="252" height="48" rx="4" fill="white"/>
<path d="M734 51.2778C734 50.8482 734.586 50.5 735 50.5C735.414 50.5 736 50.8482 736 51.2778V52.8333H734V51.2778Z" fill="#6E7491"/>
<path d="M744 51.2778C744 50.8482 744.586 50.5 745 50.5C745.414 50.5 746 50.8482 746 51.2778V52.8333H744V51.2778Z" fill="#6E7491"/>
<path fill-rule="evenodd" clip-rule="evenodd" d="M734 52.8333H731.75C731.336 52.8333 731 53.1816 731 53.6111V70.7222C731 71.1518 731.336 71.5 731.75 71.5H748.25C748.664 71.5 749 71.1518 749 70.7222V53.6111C749 53.1816 748.664 52.8333 748.25 52.8333H746H744H736H734ZM747.5 57.5H732.5V69.9444H747.5V57.5Z" fill="#6E7491"/>
<path d="M734 61C734 60.1716 734.672 59.5 735.5 59.5C736.328 59.5 737 60.1716 737 61C737 61.8284 736.328 62.5 735.5 62.5C734.672 62.5 734 61.8284 734 61Z" fill="#6E7491"/>
<path d="M746 64C746 63.1716 745.328 62.5 744.5 62.5C743.672 62.5 743 63.1716 743 64C743 64.8284 743.672 65.5 744.5 65.5C745.328 65.5 746 64.8284 746 64Z" fill="#6E7491"/>
<path d="M765.566 67.5V54.81H769.85C771.902 54.81 773.486 55.356 774.602 56.448C775.718 57.528 776.276 59.094 776.276 61.146C776.276 63.198 775.718 64.77 774.602 65.862C773.486 66.954 771.902 67.5 769.85 67.5H765.566ZM767.042 66.24H769.742C773.054 66.24 774.71 64.542 774.71 61.146C774.71 57.762 773.054 56.07 769.742 56.07H767.042V66.24ZM782.669 67.662C781.289 67.662 780.197 67.26 779.393 66.456C778.589 65.64 778.187 64.536 778.187 63.144C778.187 62.244 778.367 61.452 778.727 60.768C779.087 60.072 779.579 59.538 780.203 59.166C780.839 58.782 781.571 58.59 782.399 58.59C783.587 58.59 784.517 58.974 785.189 59.742C785.861 60.498 786.197 61.542 786.197 62.874V63.432H779.609C779.657 64.428 779.945 65.19 780.473 65.718C781.001 66.234 781.733 66.492 782.669 66.492C783.197 66.492 783.701 66.414 784.181 66.258C784.661 66.09 785.117 65.82 785.549 65.448L786.053 66.474C785.657 66.846 785.153 67.14 784.541 67.356C783.929 67.56 783.305 67.662 782.669 67.662ZM782.435 59.67C781.607 59.67 780.953 59.928 780.473 60.444C779.993 60.96 779.711 61.638 779.627 62.478H784.937C784.901 61.59 784.667 60.9 784.235 60.408C783.815 59.916 783.215 59.67 782.435 59.67ZM788.307 70.74V58.752H789.729V60.318C789.993 59.778 790.383 59.358 790.899 59.058C791.427 58.746 792.039 58.59 792.735 58.59C793.515 58.59 794.193 58.776 794.769 59.148C795.357 59.508 795.807 60.03 796.119 60.714C796.443 61.386 796.605 62.19 796.605 63.126C796.605 64.05 796.443 64.854 796.119 65.538C795.807 66.21 795.357 66.732 794.769 67.104C794.193 67.476 793.515 67.662 792.735 67.662C792.063 67.662 791.463 67.512 790.935 67.212C790.407 66.912 790.017 66.498 789.765 65.97V70.74H788.307ZM792.429 66.492C793.245 66.492 793.899 66.204 794.391 65.628C794.883 65.04 795.129 64.206 795.129 63.126C795.129 62.034 794.883 61.2 794.391 60.624C793.899 60.048 793.245 59.76 792.429 59.76C791.613 59.76 790.959 60.048 790.467 60.624C789.975 61.2 789.729 62.034 789.729 63.126C789.729 64.206 789.975 65.04 790.467 65.628C790.959 66.204 791.613 66.492 792.429 66.492ZM801.556 67.662C800.956 67.662 800.416 67.548 799.936 67.32C799.468 67.08 799.096 66.756 798.82 66.348C798.544 65.94 798.406 65.484 798.406 64.98C798.406 64.344 798.568 63.84 798.892 63.468C799.228 63.096 799.774 62.832 800.53 62.676C801.298 62.508 802.342 62.424 803.662 62.424H804.238V61.866C804.238 61.122 804.082 60.588 803.77 60.264C803.47 59.928 802.984 59.76 802.312 59.76C801.784 59.76 801.274 59.838 800.782 59.994C800.29 60.138 799.786 60.378 799.27 60.714L798.766 59.652C799.222 59.328 799.774 59.07 800.422 58.878C801.082 58.686 801.712 58.59 802.312 58.59C803.44 58.59 804.274 58.866 804.814 59.418C805.366 59.97 805.642 60.828 805.642 61.992V67.5H804.274V65.988C804.046 66.504 803.692 66.912 803.212 67.212C802.744 67.512 802.192 67.662 801.556 67.662ZM801.79 66.564C802.51 66.564 803.098 66.318 803.554 65.826C804.01 65.322 804.238 64.686 804.238 63.918V63.378H803.68C802.708 63.378 801.94 63.426 801.376 63.522C800.824 63.606 800.434 63.762 800.206 63.99C799.99 64.206 799.882 64.506 799.882 64.89C799.882 65.382 800.05 65.784 800.386 66.096C800.734 66.408 801.202 66.564 801.79 66.564ZM808.347 67.5V58.752H809.769V60.318C810.237 59.262 811.197 58.68 812.649 58.572L813.171 58.518L813.279 59.778L812.361 59.886C811.533 59.958 810.903 60.222 810.471 60.678C810.039 61.122 809.823 61.734 809.823 62.514V67.5H808.347ZM818.782 67.662C817.75 67.662 816.976 67.392 816.46 66.852C815.944 66.3 815.686 65.508 815.686 64.476V59.886H813.976V58.752H815.686V56.07H817.144V58.752H819.916V59.886H817.144V64.332C817.144 65.016 817.288 65.538 817.576 65.898C817.864 66.246 818.332 66.42 818.98 66.42C819.172 66.42 819.364 66.396 819.556 66.348C819.748 66.3 819.922 66.252 820.078 66.204L820.33 67.32C820.174 67.404 819.946 67.482 819.646 67.554C819.346 67.626 819.058 67.662 818.782 67.662ZM826.116 63.306V62.1H831.156V63.306H826.116ZM838.638 67.5V54.81H843.66C845.028 54.81 846.072 55.128 846.792 55.764C847.524 56.4 847.89 57.306 847.89 58.482C847.89 59.418 847.632 60.186 847.116 60.786C846.612 61.386 845.892 61.776 844.956 61.956C845.508 62.148 845.982 62.616 846.378 63.36L848.61 67.5H846.99L844.794 63.432C844.518 62.928 844.2 62.586 843.84 62.406C843.48 62.226 843.006 62.136 842.418 62.136H840.114V67.5H838.638ZM840.114 60.966H843.444C845.436 60.966 846.432 60.138 846.432 58.482C846.432 56.85 845.436 56.034 843.444 56.034H840.114V60.966ZM854.23 67.662C852.85 67.662 851.758 67.26 850.954 66.456C850.15 65.64 849.748 64.536 849.748 63.144C849.748 62.244 849.928 61.452 850.288 60.768C850.648 60.072 851.14 59.538 851.764 59.166C852.4 58.782 853.132 58.59 853.96 58.59C855.148 58.59 856.078 58.974 856.75 59.742C857.422 60.498 857.758 61.542 857.758 62.874V63.432H851.17C851.218 64.428 851.506 65.19 852.034 65.718C852.562 66.234 853.294 66.492 854.23 66.492C854.758 66.492 855.262 66.414 855.742 66.258C856.222 66.09 856.678 65.82 857.11 65.448L857.614 66.474C857.218 66.846 856.714 67.14 856.102 67.356C855.49 67.56 854.866 67.662 854.23 67.662ZM853.996 59.67C853.168 59.67 852.514 59.928 852.034 60.444C851.554 60.96 851.272 61.638 851.188 62.478H856.498C856.462 61.59 856.228 60.9 855.796 60.408C855.376 59.916 854.776 59.67 853.996 59.67ZM863.378 67.662C862.346 67.662 861.572 67.392 861.056 66.852C860.54 66.3 860.282 65.508 860.282 64.476V59.886H858.572V58.752H860.282V56.07H861.74V58.752H864.512V59.886H861.74V64.332C861.74 65.016 861.884 65.538 862.172 65.898C862.46 66.246 862.928 66.42 863.576 66.42C863.768 66.42 863.96 66.396 864.152 66.348C864.344 66.3 864.518 66.252 864.674 66.204L864.926 67.32C864.77 67.404 864.542 67.482 864.242 67.554C863.942 67.626 863.654 67.662 863.378 67.662ZM869.257 67.662C867.157 67.662 866.107 66.504 866.107 64.188V58.752H867.565V64.17C867.565 64.95 867.721 65.526 868.033 65.898C868.357 66.27 868.861 66.456 869.545 66.456C870.289 66.456 870.895 66.21 871.363 65.718C871.831 65.214 872.065 64.548 872.065 63.72V58.752H873.523V67.5H872.101V66.024C871.825 66.552 871.435 66.96 870.931 67.248C870.439 67.524 869.881 67.662 869.257 67.662ZM876.251 67.5V58.752H877.673V60.318C878.141 59.262 879.101 58.68 880.553 58.572L881.075 58.518L881.183 59.778L880.265 59.886C879.437 59.958 878.807 60.222 878.375 60.678C877.943 61.122 877.727 61.734 877.727 62.514V67.5H876.251ZM882.702 67.5V58.752H884.124V60.246C884.412 59.694 884.82 59.28 885.348 59.004C885.876 58.728 886.47 58.59 887.13 58.59C889.206 58.59 890.244 59.742 890.244 62.046V67.5H888.786V62.136C888.786 61.32 888.624 60.726 888.3 60.354C887.988 59.97 887.484 59.778 886.788 59.778C885.984 59.778 885.342 60.03 884.862 60.534C884.394 61.026 884.16 61.686 884.16 62.514V67.5H882.702Z" fill="#7C8DB0"/>
<rect x="964" y="37.5" width="1" height="48" fill="#CBD4E6"/>
<rect x="965" y="37.5" width="200" height="48" rx="4" fill="white"/>
<circle cx="993" cy="56.5" r="4" fill="#6E7491"/>
<path d="M987 69.5C985.895 69.5 984.974 68.5907 985.247 67.5202C986.128 64.0595 989.265 61.5 993 61.5C996.735 61.5 999.872 64.0595 1000.75 67.5202C1001.03 68.5907 1000.1 69.5 999 69.5H987Z" fill="#6E7491"/>
<path d="M1019.23 67.5V66.24H1022.13V56.592L1019.84 58.032L1019.21 56.934L1022.54 54.81H1023.61V66.24H1026.32V67.5H1019.23ZM1036.54 67.662C1035.94 67.662 1035.4 67.548 1034.92 67.32C1034.45 67.08 1034.08 66.756 1033.8 66.348C1033.53 65.94 1033.39 65.484 1033.39 64.98C1033.39 64.344 1033.55 63.84 1033.87 63.468C1034.21 63.096 1034.76 62.832 1035.51 62.676C1036.28 62.508 1037.32 62.424 1038.64 62.424H1039.22V61.866C1039.22 61.122 1039.06 60.588 1038.75 60.264C1038.45 59.928 1037.97 59.76 1037.29 59.76C1036.77 59.76 1036.26 59.838 1035.76 59.994C1035.27 60.138 1034.77 60.378 1034.25 60.714L1033.75 59.652C1034.2 59.328 1034.76 59.07 1035.4 58.878C1036.06 58.686 1036.69 58.59 1037.29 58.59C1038.42 58.59 1039.26 58.866 1039.8 59.418C1040.35 59.97 1040.62 60.828 1040.62 61.992V67.5H1039.26V65.988C1039.03 66.504 1038.67 66.912 1038.19 67.212C1037.73 67.512 1037.17 67.662 1036.54 67.662ZM1036.77 66.564C1037.49 66.564 1038.08 66.318 1038.54 65.826C1038.99 65.322 1039.22 64.686 1039.22 63.918V63.378H1038.66C1037.69 63.378 1036.92 63.426 1036.36 63.522C1035.81 63.606 1035.42 63.762 1035.19 63.99C1034.97 64.206 1034.86 64.506 1034.86 64.89C1034.86 65.382 1035.03 65.784 1035.37 66.096C1035.72 66.408 1036.18 66.564 1036.77 66.564ZM1046.66 67.662C1045.88 67.662 1045.19 67.476 1044.61 67.104C1044.03 66.732 1043.58 66.21 1043.26 65.538C1042.94 64.854 1042.79 64.05 1042.79 63.126C1042.79 62.19 1042.94 61.386 1043.26 60.714C1043.58 60.03 1044.03 59.508 1044.61 59.148C1045.19 58.776 1045.88 58.59 1046.66 58.59C1047.34 58.59 1047.94 58.74 1048.46 59.04C1048.99 59.34 1049.38 59.754 1049.63 60.282V54.81H1051.09V67.5H1049.66V65.898C1049.41 66.45 1049.02 66.882 1048.49 67.194C1047.97 67.506 1047.35 67.662 1046.66 67.662ZM1046.96 66.492C1047.78 66.492 1048.43 66.204 1048.93 65.628C1049.42 65.04 1049.66 64.206 1049.66 63.126C1049.66 62.034 1049.42 61.2 1048.93 60.624C1048.43 60.048 1047.78 59.76 1046.96 59.76C1046.14 59.76 1045.48 60.048 1044.98 60.624C1044.5 61.2 1044.26 62.034 1044.26 63.126C1044.26 64.206 1044.5 65.04 1044.98 65.628C1045.48 66.204 1046.14 66.492 1046.96 66.492ZM1056.92 67.662C1054.82 67.662 1053.77 66.504 1053.77 64.188V58.752H1055.23V64.17C1055.23 64.95 1055.38 65.526 1055.7 65.898C1056.02 66.27 1056.52 66.456 1057.21 66.456C1057.95 66.456 1058.56 66.21 1059.03 65.718C1059.49 65.214 1059.73 64.548 1059.73 63.72V58.752H1061.19V67.5H1059.76V66.024C1059.49 66.552 1059.1 66.96 1058.59 67.248C1058.1 67.524 1057.54 67.662 1056.92 67.662ZM1066.59 67.662C1065.71 67.662 1065.03 67.404 1064.58 66.888C1064.13 66.36 1063.91 65.598 1063.91 64.602V54.81H1065.37V64.494C1065.37 65.778 1065.88 66.42 1066.9 66.42C1067.2 66.42 1067.47 66.384 1067.71 66.312L1067.67 67.536C1067.3 67.62 1066.94 67.662 1066.59 67.662ZM1072.59 67.662C1071.56 67.662 1070.78 67.392 1070.27 66.852C1069.75 66.3 1069.49 65.508 1069.49 64.476V59.886H1067.78V58.752H1069.49V56.07H1070.95V58.752H1073.72V59.886H1070.95V64.332C1070.95 65.016 1071.1 65.538 1071.38 65.898C1071.67 66.246 1072.14 66.42 1072.79 66.42C1072.98 66.42 1073.17 66.396 1073.36 66.348C1073.56 66.3 1073.73 66.252 1073.89 66.204L1074.14 67.32C1073.98 67.404 1073.75 67.482 1073.45 67.554C1073.15 67.626 1072.87 67.662 1072.59 67.662Z" fill="#7C8DB0"/>
<rect x="1165" y="37.5" width="96" height="48" rx="4" fill="#605DEC"/>
<path d="M1190.67 67.162C1189.67 67.162 1188.77 67.036 1187.97 66.784C1187.17 66.52 1186.47 66.142 1185.88 65.65L1186.4 64.462C1187.02 64.93 1187.66 65.278 1188.33 65.506C1189 65.734 1189.78 65.848 1190.67 65.848C1191.75 65.848 1192.55 65.65 1193.06 65.254C1193.59 64.846 1193.86 64.312 1193.86 63.652C1193.86 63.124 1193.66 62.704 1193.28 62.392C1192.91 62.08 1192.28 61.834 1191.39 61.654L1189.52 61.276C1188.39 61.036 1187.54 60.646 1186.98 60.106C1186.43 59.554 1186.15 58.822 1186.15 57.91C1186.15 57.154 1186.34 56.494 1186.73 55.93C1187.12 55.366 1187.67 54.928 1188.37 54.616C1189.06 54.304 1189.87 54.148 1190.78 54.148C1191.63 54.148 1192.42 54.286 1193.15 54.562C1193.89 54.826 1194.5 55.21 1195.01 55.714L1194.49 56.866C1193.95 56.374 1193.38 56.02 1192.78 55.804C1192.18 55.576 1191.5 55.462 1190.76 55.462C1189.81 55.462 1189.06 55.684 1188.49 56.128C1187.93 56.56 1187.65 57.136 1187.65 57.856C1187.65 58.432 1187.82 58.888 1188.17 59.224C1188.53 59.56 1189.11 59.806 1189.91 59.962L1191.79 60.358C1193 60.61 1193.89 60.994 1194.47 61.51C1195.06 62.014 1195.35 62.704 1195.35 63.58C1195.35 64.288 1195.16 64.912 1194.77 65.452C1194.4 65.992 1193.86 66.412 1193.15 66.712C1192.46 67.012 1191.63 67.162 1190.67 67.162ZM1201.38 67.162C1200 67.162 1198.91 66.76 1198.11 65.956C1197.3 65.14 1196.9 64.036 1196.9 62.644C1196.9 61.744 1197.08 60.952 1197.44 60.268C1197.8 59.572 1198.29 59.038 1198.92 58.666C1199.55 58.282 1200.29 58.09 1201.11 58.09C1202.3 58.09 1203.23 58.474 1203.9 59.242C1204.58 59.998 1204.91 61.042 1204.91 62.374V62.932H1198.32C1198.37 63.928 1198.66 64.69 1199.19 65.218C1199.72 65.734 1200.45 65.992 1201.38 65.992C1201.91 65.992 1202.42 65.914 1202.9 65.758C1203.38 65.59 1203.83 65.32 1204.26 64.948L1204.77 65.974C1204.37 66.346 1203.87 66.64 1203.26 66.856C1202.64 67.06 1202.02 67.162 1201.38 67.162ZM1201.15 59.17C1200.32 59.17 1199.67 59.428 1199.19 59.944C1198.71 60.46 1198.43 61.138 1198.34 61.978H1203.65C1203.62 61.09 1203.38 60.4 1202.95 59.908C1202.53 59.416 1201.93 59.17 1201.15 59.17ZM1209.78 67.162C1209.18 67.162 1208.64 67.048 1208.16 66.82C1207.69 66.58 1207.32 66.256 1207.04 65.848C1206.76 65.44 1206.63 64.984 1206.63 64.48C1206.63 63.844 1206.79 63.34 1207.11 62.968C1207.45 62.596 1207.99 62.332 1208.75 62.176C1209.52 62.008 1210.56 61.924 1211.88 61.924H1212.46V61.366C1212.46 60.622 1212.3 60.088 1211.99 59.764C1211.69 59.428 1211.2 59.26 1210.53 59.26C1210 59.26 1209.49 59.338 1209 59.494C1208.51 59.638 1208.01 59.878 1207.49 60.214L1206.99 59.152C1207.44 58.828 1207.99 58.57 1208.64 58.378C1209.3 58.186 1209.93 58.09 1210.53 58.09C1211.66 58.09 1212.49 58.366 1213.03 58.918C1213.59 59.47 1213.86 60.328 1213.86 61.492V67H1212.49V65.488C1212.27 66.004 1211.91 66.412 1211.43 66.712C1210.96 67.012 1210.41 67.162 1209.78 67.162ZM1210.01 66.064C1210.73 66.064 1211.32 65.818 1211.77 65.326C1212.23 64.822 1212.46 64.186 1212.46 63.418V62.878H1211.9C1210.93 62.878 1210.16 62.926 1209.6 63.022C1209.04 63.106 1208.65 63.262 1208.43 63.49C1208.21 63.706 1208.1 64.006 1208.1 64.39C1208.1 64.882 1208.27 65.284 1208.61 65.596C1208.95 65.908 1209.42 66.064 1210.01 66.064ZM1216.57 67V58.252H1217.99V59.818C1218.46 58.762 1219.42 58.18 1220.87 58.072L1221.39 58.018L1221.5 59.278L1220.58 59.386C1219.75 59.458 1219.12 59.722 1218.69 60.178C1218.26 60.622 1218.04 61.234 1218.04 62.014V67H1216.57ZM1226.62 67.162C1225.74 67.162 1224.99 66.976 1224.35 66.604C1223.72 66.22 1223.22 65.686 1222.88 65.002C1222.54 64.306 1222.37 63.496 1222.37 62.572C1222.37 61.18 1222.75 60.088 1223.51 59.296C1224.26 58.492 1225.3 58.09 1226.62 58.09C1227.16 58.09 1227.69 58.186 1228.22 58.378C1228.75 58.57 1229.19 58.84 1229.54 59.188L1229.03 60.25C1228.68 59.914 1228.3 59.668 1227.88 59.512C1227.47 59.356 1227.08 59.278 1226.71 59.278C1225.8 59.278 1225.1 59.566 1224.6 60.142C1224.11 60.706 1223.87 61.522 1223.87 62.59C1223.87 63.634 1224.11 64.462 1224.6 65.074C1225.1 65.674 1225.8 65.974 1226.71 65.974C1227.08 65.974 1227.47 65.896 1227.88 65.74C1228.3 65.584 1228.68 65.332 1229.03 64.984L1229.54 66.046C1229.19 66.394 1228.74 66.67 1228.2 66.874C1227.68 67.066 1227.15 67.162 1226.62 67.162ZM1231.24 67V54.31H1232.7V59.692C1232.99 59.164 1233.39 58.768 1233.91 58.504C1234.44 58.228 1235.02 58.09 1235.67 58.09C1237.75 58.09 1238.79 59.242 1238.79 61.546V67H1237.33V61.636C1237.33 60.82 1237.17 60.226 1236.84 59.854C1236.53 59.47 1236.03 59.278 1235.33 59.278C1234.53 59.278 1233.88 59.53 1233.4 60.034C1232.94 60.526 1232.7 61.186 1232.7 62.014V67H1231.24Z" fill="#FAFAFA"/>
</g>
<defs>
<filter id="filter0_ddd_890_24079" x="0" y="0.5" width="1322" height="170" filterUnits="userSpaceOnUse" color-interpolation-filters="sRGB">
<feFlood flood-opacity="0" result="BackgroundImageFix"/>
<feColorMatrix in="SourceAlpha" type="matrix" values="0 0 0 0 0 0 0 0 0 0 0 0 0 0 0 0 0 0 127 0" result="hardAlpha"/>
<feOffset dy="12"/>
<feGaussianBlur stdDeviation="12"/>
<feColorMatrix type="matrix" values="0 0 0 0 0.107812 0 0 0 0 0.23 0 0 0 0 0.467187 0 0 0 0.05 0"/>
<feBlend mode="normal" in2="BackgroundImageFix" result="effect1_dropShadow_890_24079"/>
<feColorMatrix in="SourceAlpha" type="matrix" values="0 0 0 0 0 0 0 0 0 0 0 0 0 0 0 0 0 0 127 0" result="hardAlpha"/>
<feOffset dy="24"/>
<feGaussianBlur stdDeviation="30"/>
<feColorMatrix type="matrix" values="0 0 0 0 0.0247569 0 0 0 0 0.183589 0 0 0 0 0.49191 0 0 0 0.05 0"/>
<feBlend mode="normal" in2="effect1_dropShadow_890_24079" result="effect2_dropShadow_890_24079"/>
<feColorMatrix in="SourceAlpha" type="matrix" values="0 0 0 0 0 0 0 0 0 0 0 0 0 0 0 0 0 0 127 0" result="hardAlpha"/>
<feOffset dy="2"/>
<feGaussianBlur stdDeviation="2"/>
<feColorMatrix type="matrix" values="0 0 0 0 0.0284 0 0 0 0 0.017257 0 0 0 0 0.57441 0 0 0 0.1 0"/>
<feBlend mode="normal" in2="effect2_dropShadow_890_24079" result="effect3_dropShadow_890_24079"/>
<feBlend mode="normal" in="SourceGraphic" in2="effect3_dropShadow_890_24079" result="shape"/>
</filter>
</defs>
</svg>
